<svg width="26" height="26" viewBox="0 0 26 26" fill="none" xmlns="http://www.w3.org/2000/svg">
<g clip-path="url(#clip0)">
<path d="M25.027 6.38644L12.9929 18.4217L0.95882 6.38644C0.734314 6.16957 0.376494 6.17582 0.159619 6.40033C-0.0519043 6.61938 -0.0519043 6.9666 0.159619 7.18559L12.5939 19.6199C12.8146 19.8405 13.1723 19.8405 13.3931 19.6199L25.8273 7.18559C26.0518 6.96872 26.058 6.61095 25.8412 6.38639C25.6243 6.16189 25.2666 6.15569 25.042 6.37251C25.0373 6.37707 25.0327 6.38168 25.0281 6.38639L25.027 6.38644Z" fill="#FFC107"/>
<path d="M12.9931 19.786C12.8431 19.7863 12.6991 19.7269 12.5929 19.621L0.158662 7.1867C-0.0582127 6.9622 -0.0519602 6.60438 0.172545 6.3875C0.391593 6.17598 0.738815 6.17598 0.95781 6.3875L12.993 18.4216L25.0271 6.38639C25.244 6.16189 25.6018 6.15569 25.8263 6.37251C26.0508 6.58938 26.057 6.94715 25.8402 7.17171C25.8357 7.17643 25.831 7.18104 25.8263 7.18559L13.3921 19.6198C13.2864 19.7259 13.1428 19.7856 12.9931 19.786Z" fill="#051EFF"/>
</g>
<defs>
<clipPath id="clip0">
<rect width="26" height="26" fill="white"/>
</clipPath>
</defs>
</svg>
