<svg width="19" height="19" viewBox="0 0 19 19" fill="none" xmlns="http://www.w3.org/2000/svg">
<path d="M15.0436 13.4565C13.7373 13.4565 12.6746 14.5193 12.6746 15.8256C12.6746 17.1319 13.7373 18.1947 15.0436 18.1947C16.3499 18.1947 17.4127 17.1319 17.4127 15.8256C17.4127 14.5193 16.3499 13.4565 15.0436 13.4565ZM15.0436 16.7732C14.521 16.7732 14.096 16.3482 14.096 15.8256C14.096 15.303 14.521 14.878 15.0436 14.878C15.5663 14.878 15.9913 15.303 15.9913 15.8256C15.9913 16.3482 15.5663 16.7732 15.0436 16.7732Z" fill="white"/>
<path d="M18.849 4.30027C18.7144 4.12805 18.508 4.02759 18.2894 4.02759H4.3871L3.74744 1.35125C3.67092 1.03144 3.38495 0.805664 3.05612 0.805664H0.710723C0.318178 0.805627 0 1.1238 0 1.51635C0 1.90889 0.318178 2.22707 0.710723 2.22707H2.49514L4.80499 11.892C4.88151 12.2121 5.16747 12.4376 5.4963 12.4376H16.56C16.8867 12.4376 17.1714 12.2149 17.2498 11.8979L18.9793 4.90909C19.0316 4.69686 18.9835 4.4725 18.849 4.30027ZM16.0039 11.0162H6.05729L4.7268 5.44904H17.3813L16.0039 11.0162Z" fill="white"/>
<path d="M6.44403 13.4565C5.1377 13.4565 4.07495 14.5193 4.07495 15.8256C4.07495 17.1319 5.13773 18.1947 6.44403 18.1947C7.75032 18.1947 8.8131 17.1319 8.8131 15.8256C8.8131 14.5193 7.75032 13.4565 6.44403 13.4565ZM6.44403 16.7732C5.92141 16.7732 5.4964 16.3482 5.4964 15.8256C5.4964 15.303 5.92141 14.878 6.44403 14.878C6.96664 14.878 7.39166 15.303 7.39166 15.8256C7.39166 16.3482 6.96664 16.7732 6.44403 16.7732Z" fill="white"/>
</svg>
