<svg width="35" height="35" viewBox="0 0 35 35" fill="none" xmlns="http://www.w3.org/2000/svg">
<path d="M27.7122 24.7881C25.3058 24.7881 23.3481 26.7458 23.3481 29.1522C23.3481 31.5585 25.3059 33.5163 27.7122 33.5163C30.1186 33.5163 32.0763 31.5585 32.0763 29.1522C32.0763 26.7458 30.1186 24.7881 27.7122 24.7881ZM27.7122 30.8978C26.7495 30.8978 25.9666 30.1149 25.9666 29.1522C25.9666 28.1895 26.7495 27.4065 27.7122 27.4065C28.6749 27.4065 29.4579 28.1895 29.4579 29.1522C29.4579 30.1149 28.6749 30.8978 27.7122 30.8978Z" fill="white"/>
<path d="M34.7218 7.92132C34.4739 7.60407 34.0938 7.41902 33.691 7.41902H8.08149L6.90317 2.48891C6.76222 1.89979 6.23544 1.48389 5.6297 1.48389H1.30923C0.586117 1.48382 0 2.06993 0 2.79304C0 3.51615 0.586117 4.10227 1.30923 4.10227H4.59631L8.85129 21.9061C8.99225 22.4957 9.51903 22.9111 10.1248 22.9111H30.5052C31.107 22.9111 31.6316 22.5009 31.776 21.917L34.9619 9.04283C35.0582 8.65189 34.9696 8.23858 34.7218 7.92132ZM29.4809 20.2927H11.1582L8.70726 10.0375H32.0181L29.4809 20.2927Z" fill="white"/>
<path d="M11.8704 24.7881C9.46403 24.7881 7.50635 26.7458 7.50635 29.1522C7.50635 31.5585 9.4641 33.5163 11.8704 33.5163C14.2768 33.5163 16.2345 31.5585 16.2345 29.1522C16.2345 26.7458 14.2768 24.7881 11.8704 24.7881ZM11.8704 30.8978C10.9077 30.8978 10.1248 30.1149 10.1248 29.1522C10.1248 28.1895 10.9077 27.4065 11.8704 27.4065C12.8331 27.4065 13.6161 28.1895 13.6161 29.1522C13.6161 30.1149 12.8331 30.8978 11.8704 30.8978Z" fill="white"/>
</svg>
