<svg width="25" height="25" viewBox="0 0 25 25" fill="none" xmlns="http://www.w3.org/2000/svg">
<path d="M22.1153 4.80771H17.3076C17.3076 2.15239 15.1552 0 12.4999 0C9.84463 0 7.69219 2.15239 7.69219 4.80771H2.88452C2.22056 4.80771 1.68262 5.3457 1.68262 6.00962C1.68262 6.67354 2.22061 7.21152 2.88452 7.21152H3.36528V21.875C3.36816 23.6 4.76528 24.9971 6.49028 25H18.5095C20.2345 24.9971 21.6316 23.6 21.6345 21.875V7.21152H22.1153C22.7792 7.21152 23.3172 6.67354 23.3172 6.00962C23.3172 5.3457 22.7792 4.80771 22.1153 4.80771ZM12.4999 2.40386C13.8273 2.40386 14.9038 3.48032 14.9038 4.80771H10.096C10.096 3.48027 11.1725 2.40386 12.4999 2.40386ZM19.2307 21.875C19.2307 22.2731 18.9076 22.5961 18.5095 22.5961H6.49028C6.09219 22.5961 5.76914 22.273 5.76914 21.875V7.21152H19.2307V21.875Z" fill="#FF485A"/>
<path d="M9.85571 18.5096C9.19175 18.5096 8.65381 17.9716 8.65381 17.3077V12.5C8.65381 11.836 9.1918 11.2981 9.85571 11.2981C10.5196 11.2981 11.0576 11.8361 11.0576 12.5V17.3077C11.0577 17.9716 10.5197 18.5096 9.85571 18.5096Z" fill="#FFBBC0"/>
<path d="M15.1443 18.5096C14.4803 18.5096 13.9424 17.9716 13.9424 17.3077V12.5C13.9424 11.836 14.4804 11.2981 15.1443 11.2981C15.8083 11.2981 16.3462 11.8361 16.3462 12.5V17.3077C16.3462 17.9716 15.8082 18.5096 15.1443 18.5096Z" fill="#FFBBC0"/>
</svg>
