<svg width="62" height="62" viewBox="0 0 62 62" fill="none" xmlns="http://www.w3.org/2000/svg">
<g clip-path="url(#clip0)">
<path d="M15.5073 49.6025H26.8718V60.9671H17.5736C16.4324 60.9671 15.5073 60.042 15.5073 58.9008V49.6025Z" fill="#E3E7F2"/>
<path d="M26.8716 49.6025H38.2361V60.9671H26.8716V49.6025Z" fill="#E3E7F2"/>
<path d="M38.2363 49.6025H49.6008V60.9671H38.2363V49.6025Z" fill="#E3E7F2"/>
<path d="M60.9656 49.6025V58.9008C60.9623 60.0406 60.0391 60.9638 58.8994 60.9671H49.6011V49.6025H60.9656Z" fill="#7FABFA"/>
<path d="M26.8716 38.2378H38.2361V49.6023H26.8716V38.2378Z" fill="#E3E7F2"/>
<path d="M38.2363 38.2378H49.6008V49.6023H38.2363V38.2378Z" fill="#E3E7F2"/>
<path d="M49.6011 38.2378H60.9656V49.6023H49.6011V38.2378Z" fill="#7FABFA"/>
<path d="M38.2363 26.8735H49.6008V38.2381H38.2363V26.8735Z" fill="#E3E7F2"/>
<path d="M49.6011 26.8735H60.9656V38.2381H49.6011V26.8735Z" fill="#7FABFA"/>
<path d="M49.6011 15.5088H60.9656V26.8733H49.6011V15.5088Z" fill="#7FABFA"/>
<path d="M57.866 49.6025V58.9008C57.8627 60.0406 56.9395 60.9638 55.7998 60.9671H49.6011V49.6025H57.866Z" fill="#E3E7F2"/>
<path d="M49.6011 38.2378H57.866V49.6023H49.6011V38.2378Z" fill="#E3E7F2"/>
<path d="M49.6011 26.8735H57.866V38.2381H49.6011V26.8735Z" fill="#E3E7F2"/>
<path d="M49.6011 15.5088H57.866V26.8733H49.6011V15.5088Z" fill="#E3E7F2"/>
<path d="M15.5072 45.4697H26.8717V49.6022H15.5072C14.366 49.6022 13.4409 48.6771 13.4409 47.536C13.4409 46.3948 14.366 45.4697 15.5072 45.4697Z" fill="#E3E7F2"/>
<path d="M26.8719 34.1055H38.2364V38.2379H26.8719C25.7307 38.2379 24.8057 37.3129 24.8057 36.1717C24.8057 35.0305 25.7307 34.1055 26.8719 34.1055Z" fill="#E3E7F2"/>
<path d="M38.2362 22.7407H49.6007V26.8732H38.2362C37.095 26.8732 36.1699 25.9481 36.1699 24.807C36.1699 23.6658 37.095 22.7407 38.2362 22.7407Z" fill="#E3E7F2"/>
<path d="M60.9654 12.4098V15.5089H49.6009C48.4611 15.5056 47.538 14.5825 47.5347 13.4427C47.5432 12.3053 48.463 11.385 49.6009 11.3765H59.9321C60.5029 11.3765 60.9654 11.839 60.9654 12.4098Z" fill="#A4C2F7"/>
<path d="M57.8658 12.4098V15.5089H49.6009C48.4611 15.5056 47.538 14.5825 47.5347 13.4427C47.5432 12.3053 48.463 11.385 49.6009 11.3765H56.833C57.4033 11.3765 57.8658 11.839 57.8658 12.4098Z" fill="#E3E7F2"/>
<path d="M23.5652 8.3833L26.4874 11.3055L4.5713 33.2216C3.76401 34.0284 2.45588 34.0284 1.64906 33.2216C0.84224 32.4148 0.84224 31.1062 1.64906 30.2994L23.5652 8.3833Z" fill="#E3E7F2"/>
<path d="M23.5662 8.38043C23.5662 8.38043 17.9199 2.66411 11.7212 1.63123C11.7212 1.63123 21.5359 -0.95192 27.2182 4.73035L30.14 7.65732C35.8222 13.3396 33.2391 23.1543 33.2391 23.1543C32.2062 16.9556 26.4866 11.3102 26.4866 11.3102L23.5662 8.38043Z" fill="#A4C2F7"/>
<path d="M4.74851 30.2992L26.6651 8.38025C26.6651 8.38025 21.0192 2.66393 14.8205 1.63105C16.0019 1.35438 17.2046 1.17798 18.4157 1.10279C16.1703 0.948137 13.9144 1.12643 11.7209 1.63105C17.9196 2.66393 23.5645 8.38214 23.5645 8.38214L1.64892 30.2992C0.865743 31.1098 0.877094 32.3985 1.67398 33.1959C2.47087 33.9928 3.75961 34.0041 4.57068 33.2209L4.67378 33.124C3.94736 32.311 3.97999 31.0729 4.74851 30.2992Z" fill="white"/>
<path d="M18.6067 58.9005V49.6022C17.4656 49.6022 16.5405 48.6771 16.5405 47.536C16.5405 46.3948 17.4656 45.4697 18.6067 45.4697H15.5072C14.366 45.4697 13.4409 46.3948 13.4409 47.536C13.4409 48.6771 14.366 49.6022 15.5072 49.6022V58.9005C15.5072 60.0417 16.4322 60.9667 17.5734 60.9667H20.673C19.5318 60.9667 18.6067 60.0417 18.6067 58.9005Z" fill="white"/>
<path d="M26.872 61.9996H17.5737C15.8622 61.9996 14.4746 60.612 14.4746 58.9005V49.6022C14.4746 49.0314 14.9371 48.5688 15.5075 48.5688H26.872C27.4428 48.5688 27.9054 49.0314 27.9054 49.6022V60.9667C27.9054 61.5371 27.4428 61.9996 26.872 61.9996ZM16.5408 50.6356V58.9005C16.5408 59.4709 17.0034 59.9334 17.5737 59.9334H25.8391V50.6356H16.5408Z" fill="#428DFF"/>
<path d="M38.2363 61.9996H26.8717C26.3014 61.9996 25.8389 61.5371 25.8389 60.9667V49.6022C25.8389 49.0314 26.3014 48.5688 26.8717 48.5688H38.2363C38.8071 48.5688 39.2696 49.0314 39.2696 49.6022V60.9667C39.2696 61.5371 38.8071 61.9996 38.2363 61.9996ZM27.9051 59.9334H37.2029V50.6356H27.9051V59.9334Z" fill="#428DFF"/>
<path d="M49.601 61.9996H38.2365C37.6661 61.9996 37.2031 61.5371 37.2031 60.9667V49.6022C37.2031 49.0314 37.6661 48.5688 38.2365 48.5688H49.601C50.1714 48.5688 50.6339 49.0314 50.6339 49.6022V60.9667C50.6339 61.5371 50.1714 61.9996 49.601 61.9996ZM39.2698 59.9334H48.5677V50.6356H39.2698V59.9334Z" fill="#428DFF"/>
<path d="M58.899 61.9996H49.6007C49.0299 61.9996 48.5674 61.5371 48.5674 60.9667V49.6022C48.5674 49.0314 49.0299 48.5688 49.6007 48.5688H60.9653C61.5356 48.5688 61.9982 49.0314 61.9982 49.6022V58.9005C61.9982 60.612 60.6106 61.9996 58.899 61.9996ZM50.6336 59.9334H58.899C59.4694 59.9334 59.9319 59.4709 59.9319 58.9005V50.6356H50.6336V59.9334Z" fill="#428DFF"/>
<path d="M38.2363 50.6354H26.8717C26.3014 50.6354 25.8389 50.1724 25.8389 49.602V38.2375C25.8389 37.6671 26.3014 37.2046 26.8717 37.2046H38.2363C38.8071 37.2046 39.2696 37.6671 39.2696 38.2375V49.602C39.2696 50.1724 38.8071 50.6354 38.2363 50.6354ZM27.9051 48.5687H37.2029V39.2708H27.9051V48.5687Z" fill="#428DFF"/>
<path d="M49.601 50.6354H38.2365C37.6661 50.6354 37.2031 50.1724 37.2031 49.602V38.2375C37.2031 37.6671 37.6661 37.2046 38.2365 37.2046H49.601C50.1714 37.2046 50.6339 37.6671 50.6339 38.2375V49.602C50.6339 50.1724 50.1714 50.6354 49.601 50.6354ZM39.2698 48.5687H48.5677V39.2708H39.2698V48.5687Z" fill="#428DFF"/>
<path d="M60.9653 50.6354H49.6007C49.0299 50.6354 48.5674 50.1724 48.5674 49.602V38.2375C48.5674 37.6671 49.0299 37.2046 49.6007 37.2046H60.9653C61.5356 37.2046 61.9982 37.6671 61.9982 38.2375V49.602C61.9982 50.1724 61.5356 50.6354 60.9653 50.6354ZM50.6336 48.5687H59.9319V39.2708H50.6336V48.5687Z" fill="#428DFF"/>
<path d="M49.601 39.2711H38.2365C37.6661 39.2711 37.2031 38.8086 37.2031 38.2378V26.8732C37.2031 26.3029 37.6661 25.8403 38.2365 25.8403H49.601C50.1714 25.8403 50.6339 26.3029 50.6339 26.8732V38.2378C50.6339 38.8086 50.1714 39.2711 49.601 39.2711ZM39.2698 37.2049H48.5677V27.9066H39.2698V37.2049Z" fill="#428DFF"/>
<path d="M60.9653 39.2711H49.6007C49.0299 39.2711 48.5674 38.8086 48.5674 38.2378V26.8732C48.5674 26.3029 49.0299 25.8403 49.6007 25.8403H60.9653C61.5356 25.8403 61.9982 26.3029 61.9982 26.8732V38.2378C61.9982 38.8086 61.5356 39.2711 60.9653 39.2711ZM50.6336 37.2049H59.9319V27.9066H50.6336V37.2049Z" fill="#428DFF"/>
<path d="M60.9653 27.9064H49.6007C49.0299 27.9064 48.5674 27.4438 48.5674 26.873V15.5085C48.5674 14.9381 49.0299 14.4756 49.6007 14.4756H60.9653C61.5356 14.4756 61.9982 14.9381 61.9982 15.5085V26.873C61.9982 27.4438 61.5356 27.9064 60.9653 27.9064ZM50.6336 25.8401H59.9319V16.5418H50.6336V25.8401Z" fill="#428DFF"/>
<path d="M25.839 50.6357H15.5073C13.7958 50.6357 12.4082 49.2477 12.4082 47.5361C12.4082 45.8241 13.7958 44.4365 15.5073 44.4365H25.839C26.4093 44.4365 26.8718 44.8991 26.8718 45.4699V49.6024C26.8718 50.1727 26.4093 50.6357 25.839 50.6357ZM15.5073 46.5028C14.937 46.5028 14.4744 46.9653 14.4744 47.5361C14.4744 48.1065 14.937 48.569 15.5073 48.569H24.8056V46.5028H15.5073Z" fill="#428DFF"/>
<path d="M38.2364 39.271H27.9053C26.1932 39.271 24.8057 37.8829 24.8057 36.1714C24.8057 34.4598 26.1932 33.0718 27.9053 33.0718H38.2364C38.8073 33.0718 39.2698 33.5343 39.2698 34.1051V38.2376C39.2698 38.8084 38.8073 39.271 38.2364 39.271ZM27.9053 35.1385C27.3344 35.1385 26.8719 35.601 26.8719 36.1714C26.8719 36.7422 27.3344 37.2047 27.9053 37.2047H37.2031V35.1385H27.9053Z" fill="#428DFF"/>
<path d="M49.6012 27.9067H39.27C37.558 27.9067 36.1704 26.5191 36.1704 24.8071C36.1704 23.0956 37.558 21.708 39.27 21.708H49.6012C50.1715 21.708 50.6341 22.1705 50.6341 22.7409V26.8734C50.6341 27.4442 50.1715 27.9067 49.6012 27.9067ZM39.27 23.7742C38.6992 23.7742 38.2366 24.2368 38.2366 24.8071C38.2366 25.378 38.6992 25.8405 39.27 25.8405H48.5678V23.7742H39.27Z" fill="#428DFF"/>
<path d="M60.9654 16.542H50.6338C48.9222 16.542 47.5347 15.1544 47.5347 13.4424C47.5347 11.7308 48.9222 10.3433 50.6338 10.3433H60.9654C61.5358 10.3433 61.9983 10.8058 61.9983 11.3761V15.5086C61.9983 16.0794 61.5358 16.542 60.9654 16.542ZM50.6338 12.4095C50.0634 12.4095 49.6009 12.872 49.6009 13.4424C49.6009 14.0132 50.0634 14.4757 50.6338 14.4757H59.9321V12.4095H50.6338Z" fill="#428DFF"/>
<path d="M24.2954 9.11368L2.37934 31.0298L0.918457 29.5689L13.3371 17.1493L22.8345 7.65186L24.2954 9.11368Z" fill="white"/>
<path d="M19.9114 12.0356C20.1053 12.2295 20.3683 12.3388 20.6426 12.3388C20.9164 12.3388 21.1793 12.2295 21.3732 12.0356L24.295 9.11385L22.8341 7.65723L19.9114 10.5799C19.5113 10.9829 19.5113 11.6327 19.9114 12.0356Z" fill="#428DFF"/>
<path d="M0.918457 29.569L2.37934 31.0299L15.5292 17.8852C15.9208 17.4799 15.9151 16.8353 15.5169 16.4366C15.1182 16.0384 14.4736 16.0328 14.0683 16.4243L0.918457 29.569Z" fill="#428DFF"/>
<path d="M18.4509 14.9573C18.6429 14.7615 18.7536 14.5004 18.7607 14.2266L18.7394 14.0294C18.7262 13.9613 18.7044 13.8946 18.6741 13.8321C18.6533 13.7697 18.6235 13.7111 18.5852 13.6576C18.5455 13.6009 18.5015 13.547 18.4542 13.4964C18.1634 13.1927 17.7127 13.1043 17.3291 13.2765C17.0723 13.3748 16.8675 13.5744 16.763 13.8284C16.658 14.0823 16.6618 14.3685 16.7744 14.6191C16.824 14.7444 16.8987 14.8589 16.9933 14.9549C17.1853 15.1512 17.4488 15.2618 17.7235 15.2618C17.9983 15.2618 18.2617 15.1512 18.4542 14.9549L18.4509 14.9573Z" fill="#428DFF"/>
<path d="M3.10956 34.8572C1.85677 34.8568 0.727411 34.1015 0.247859 32.9442C-0.231693 31.7865 0.0326758 30.4542 0.918002 29.568C1.17764 29.2993 1.56166 29.1915 1.92298 29.2861C2.2843 29.3807 2.56617 29.6626 2.66075 30.0239C2.75534 30.3852 2.64751 30.7692 2.37889 31.0284C2.11783 31.2894 2.01568 31.6701 2.11121 32.0267C2.20674 32.3833 2.4853 32.6619 2.84189 32.7574C3.19848 32.8534 3.57871 32.7513 3.83977 32.4907L25.0252 11.3053L22.8341 9.1137C22.5489 8.85832 22.4288 8.46579 22.5215 8.09454C22.6142 7.72281 22.9046 7.43291 23.2763 7.34163C23.648 7.24988 24.0401 7.37143 24.295 7.65708L27.2167 10.5788C27.6202 10.9823 27.6202 11.6363 27.2167 12.0397L5.30065 33.9525C4.71942 34.5333 3.93105 34.8586 3.10956 34.8572Z" fill="#428DFF"/>
<path d="M33.2388 24.1871H33.1915C32.7049 24.1649 32.3001 23.805 32.2201 23.3245C31.2554 17.5391 25.8148 12.0985 25.7604 12.0451L22.8344 9.11384C22.7795 9.05803 17.3413 3.61744 11.5554 2.6536C11.0707 2.57888 10.7056 2.17311 10.6819 1.68268C10.6578 1.19272 10.9822 0.753368 11.4575 0.631825C11.8832 0.518322 21.9126 -2.03361 27.9482 3.99862L30.8699 6.92181C36.9026 12.954 34.3497 22.9877 34.2381 23.4124C34.1204 23.8683 33.7099 24.1866 33.2388 24.1871ZM24.2971 7.65721L27.217 10.578C29.471 12.8911 31.3476 15.5443 32.7782 18.44C32.8425 15.3324 32.2689 11.2453 29.409 8.38647L26.4877 5.46281C23.6185 2.59496 19.5584 2.0142 16.4219 2.08561C19.3228 3.51812 21.9807 5.3985 24.2971 7.65721Z" fill="#428DFF"/>
<path d="M38.2365 17.5749C37.6661 17.5749 37.2031 17.1123 37.2031 16.542V14.4757C37.2031 13.9049 37.6661 13.4424 38.2365 13.4424C38.8073 13.4424 39.2698 13.9049 39.2698 14.4757V16.542C39.2698 17.1123 38.8073 17.5749 38.2365 17.5749Z" fill="#428DFF"/>
<path d="M41.3357 19.6416C40.9177 19.6411 40.5412 19.3895 40.3814 19.0036C40.2215 18.6177 40.31 18.1731 40.6051 17.878L42.6713 15.8113C43.0766 15.4202 43.7212 15.4254 44.1199 15.8241C44.5181 16.2228 44.5238 16.8669 44.1322 17.2722L42.0659 19.3384C41.8725 19.5323 41.6096 19.6411 41.3357 19.6416Z" fill="#428DFF"/>
<path d="M29.9713 28.9397C29.4913 28.9407 29.0742 28.6115 28.964 28.1443C28.8533 27.6775 29.0789 27.196 29.5083 26.9823L31.5746 25.9489C32.0853 25.694 32.7063 25.9011 32.9612 26.4119C33.2161 26.9227 33.009 27.5432 32.4982 27.7981L30.4319 28.8314C30.2887 28.9028 30.1312 28.9397 29.9713 28.9397Z" fill="#428DFF"/>
</g>
<defs>
<clipPath id="clip0">
<rect width="62" height="62" fill="white"/>
</clipPath>
</defs>
</svg>
