<svg width="215" height="215" viewBox="0 0 215 215" fill="none" xmlns="http://www.w3.org/2000/svg">
<g clip-path="url(#clip0)">
<path d="M215 140.527V165.006C215 173.319 192.83 180.247 165.58 180.247C138.33 180.247 116.623 173.55 116.623 165.237V162.466L116.161 143.067H116.392C120.086 150.226 140.409 155.769 164.887 155.769C189.366 155.769 214.538 148.841 214.538 140.527H215V140.527Z" fill="#E2A63B"/>
<path d="M164.195 49.5386V73.7864H163.733C163.733 82.3311 140.871 89.0281 113.852 89.0281C103.46 89.2589 92.837 88.1043 82.6758 85.564L82.2139 86.026C77.1334 81.8692 71.3601 78.6363 65.125 76.5579V76.096L64.4324 50.4624C66.0488 58.314 87.5257 64.5491 113.621 64.5491C139.717 64.5491 163.733 57.8521 163.733 49.5386H164.195Z" fill="#F4B844"/>
<path d="M164.195 50.001C164.195 58.3145 141.333 65.0115 114.083 65.0115C86.8326 65.0115 66.2796 58.7764 64.6631 50.9248C64.6631 50.6941 64.4324 50.2321 64.4324 50.001C64.4324 41.6875 86.6019 34.7593 114.083 34.7593C141.563 34.5285 164.195 41.4563 164.195 50.001Z" fill="#FEDB41"/>
<path d="M116.391 143.066L116.161 137.986L115.699 117.202C117.315 125.054 138.792 131.289 164.888 131.289C190.983 131.289 214.076 124.592 214.769 116.509H215V140.526H214.538C214.538 148.84 192.137 155.768 164.887 155.768C137.637 155.767 120.087 150.225 116.391 143.066Z" fill="#F4B844"/>
<path d="M83.3687 158.539C89.6038 152.766 94.4536 145.376 96.9935 137.293H98.148C103.229 137.755 108.309 137.986 113.852 137.986H116.161V143.067L116.623 162.465H114.082C103.921 162.696 93.9913 161.541 84.0613 159.232L83.3687 158.539Z" fill="#E2A63B"/>
<path d="M116.392 115.355V116.509L116.854 137.986H114.544C108.771 137.986 103.459 137.755 98.3792 137.293H97.2246C98.8411 132.444 99.5337 127.363 99.5337 122.283C99.5337 118.819 99.0718 115.586 98.3792 112.353H99.5337C104.383 112.815 109.233 113.045 114.544 113.045L116.623 114.2C116.392 114.661 116.392 115.123 116.392 115.355Z" fill="#F4B844"/>
<path d="M82.6753 85.5647C92.8365 88.105 103.459 89.2596 113.851 89.0288C140.87 89.0288 163.733 82.3318 163.733 73.7871H164.195V101.037C139.023 101.037 118.47 107.042 115.93 114.662L113.851 113.507C108.771 113.507 103.921 113.277 99.3028 112.815H98.1482C96.0698 102.192 90.5274 92.7237 82.2139 85.7955L82.6753 85.5647Z" fill="#E2A63B"/>
<path d="M98.6101 112.814C96.301 102.191 90.5274 92.4923 82.2139 85.3334C77.1333 80.7147 71.1289 77.4818 64.663 75.6342C60.0444 74.0177 54.9638 73.3251 50.1144 73.3251C22.6332 73.0934 0.232538 95.0322 0.00180345 122.513C-0.228931 149.994 21.7094 172.394 49.1906 172.625C61.892 172.625 73.9004 168.006 83.3684 159.462C89.8347 153.457 94.6841 145.837 97.2244 137.523C98.8409 132.674 99.5335 127.824 99.5335 122.743C99.534 119.511 98.6101 116.047 98.6101 112.814Z" fill="#FEDB41"/>
<path d="M214.769 116.047V116.509C214.076 124.592 191.676 131.289 164.888 131.289C138.099 131.289 117.315 125.054 115.699 117.202V116.047C115.699 115.585 115.699 115.124 115.929 114.662C118.47 107.041 139.023 101.037 164.194 101.037H164.887C192.138 101.036 214.769 107.733 214.769 116.047Z" fill="#FEDB41"/>
<path d="M50.114 116.74C45.9573 116.74 42.4932 113.276 42.4932 109.119C42.4932 104.962 45.9573 101.498 50.114 101.498C54.2708 101.498 57.7349 104.962 57.7349 109.119C57.7349 111.659 59.8133 113.738 62.3535 113.738C64.8938 113.738 66.9722 111.659 66.9722 109.119C66.9722 101.73 61.8916 95.0325 54.7327 92.9541V91.1065C54.7327 88.5662 52.6543 86.4878 50.114 86.4878C47.5737 86.4878 45.4954 88.5662 45.4954 91.1065V92.9541C38.1057 94.8017 33.0251 101.499 33.2558 109.119C33.2558 118.357 40.8767 125.977 50.114 125.977C54.2708 125.977 57.7349 129.441 57.7349 133.598C57.7349 137.755 54.2708 141.219 50.114 141.219C45.9573 141.219 42.4932 137.755 42.4932 133.598C42.4932 131.058 40.4148 128.98 37.8745 128.98C35.3342 128.98 33.2558 131.058 33.2558 133.598C33.2558 141.219 38.3364 147.685 45.4954 149.763V153.458C45.4954 155.998 47.5737 158.077 50.114 158.077C52.6543 158.077 54.7327 155.998 54.7327 153.458V149.763C63.7388 147.223 68.8194 137.755 66.0484 128.748C63.97 121.821 57.5037 116.74 50.114 116.74Z" fill="#E2A63B"/>
</g>
<defs>
<clipPath id="clip0">
<rect width="215" height="215" fill="white"/>
</clipPath>
</defs>
</svg>
