<svg width="41" height="41" viewBox="0 0 41 41" fill="none" xmlns="http://www.w3.org/2000/svg">
<g clip-path="url(#clip0)">
<path d="M41.0002 26.7981V31.4662C41.0002 33.0516 36.7726 34.3728 31.576 34.3728C26.3795 34.3728 22.2399 33.0956 22.2399 31.5103V30.9819L22.1519 27.2826H22.1959C22.9005 28.6478 26.7759 29.7047 31.4439 29.7047C36.1119 29.7047 40.9121 28.3836 40.9121 26.7982H41.0002V26.7981Z" fill="#E2A63B"/>
<path d="M31.3117 9.44702V14.071H31.2236C31.2236 15.7005 26.8638 16.9776 21.7113 16.9776C19.7296 17.0216 17.7038 16.8014 15.7661 16.317L15.678 16.4051C14.7092 15.6124 13.6082 14.9959 12.4192 14.5995V14.5115L12.2871 9.62319C12.5954 11.1205 16.6909 12.3095 21.6673 12.3095C26.6436 12.3095 31.2236 11.0324 31.2236 9.44702H31.3117Z" fill="#F4B844"/>
<path d="M31.3116 9.53507C31.3116 11.1204 26.9518 12.3975 21.7553 12.3975C16.5588 12.3975 12.6394 11.2085 12.3311 9.71124C12.3311 9.66724 12.2871 9.57915 12.2871 9.53507C12.2871 7.9497 16.5148 6.62851 21.7554 6.62851C26.9958 6.58451 31.3116 7.90562 31.3116 9.53507Z" fill="#FEDB41"/>
<path d="M22.1956 27.2825L22.1516 26.3136L22.0635 22.3502C22.3717 23.8475 26.4673 25.0365 31.4437 25.0365C36.42 25.0365 40.8239 23.7594 40.9559 22.218H40.9999V26.798H40.9119C40.9119 28.3834 36.6401 29.7046 31.4436 29.7046C26.2471 29.7045 22.9002 28.6476 22.1956 27.2825Z" fill="#F4B844"/>
<path d="M15.8979 30.2331C17.087 29.1322 18.0118 27.7229 18.4962 26.1816H18.7163C19.6852 26.2697 20.654 26.3137 21.711 26.3137H22.1513V27.2826L22.2394 30.9818H21.755C19.8173 31.0258 17.9237 30.8057 16.03 30.3653L15.8979 30.2331Z" fill="#E2A63B"/>
<path d="M22.1957 21.998V22.2181L22.2838 26.3137H21.8433C20.7424 26.3137 19.7295 26.2697 18.7607 26.1816H18.5405C18.8488 25.2569 18.9809 24.288 18.9809 23.3192C18.9809 22.6586 18.8928 22.042 18.7607 21.4255H18.9809C19.9056 21.5136 20.8305 21.5576 21.8433 21.5576L22.2397 21.7778C22.1957 21.8658 22.1957 21.9539 22.1957 21.998Z" fill="#F4B844"/>
<path d="M15.7662 16.317C17.7039 16.8014 19.7296 17.0216 21.7114 16.9776C26.8639 16.9776 31.2237 15.7005 31.2237 14.071H31.3118V19.2676C26.5116 19.2676 22.5922 20.4126 22.1078 21.8658L21.7114 21.6456C20.7426 21.6456 19.8178 21.6016 18.937 21.5135H18.7169C18.3205 19.4877 17.2636 17.6822 15.6782 16.361L15.7662 16.317Z" fill="#E2A63B"/>
<path d="M18.8047 21.5135C18.3644 19.4877 17.2634 17.6382 15.678 16.273C14.7091 15.3922 13.5641 14.7757 12.3311 14.4234C11.4503 14.1151 10.4815 13.983 9.5567 13.983C4.3161 13.9388 0.0443444 18.1225 0.000343914 23.363C-0.0436565 28.6036 4.13993 32.8753 9.38053 32.9193C11.8027 32.9193 14.0926 32.0385 15.8982 30.4091C17.1313 29.2641 18.056 27.8109 18.5405 26.2254C18.8487 25.3007 18.9808 24.3758 18.9808 23.4069C18.9809 22.7906 18.8047 22.13 18.8047 21.5135Z" fill="#FEDB41"/>
<path d="M40.9559 22.13V22.2181C40.8239 23.7594 36.5521 25.0365 31.4437 25.0365C26.3352 25.0365 22.3717 23.8475 22.0635 22.3502V22.1301C22.0635 22.042 22.0635 21.9539 22.1075 21.8658C22.5919 20.4125 26.5113 19.2676 31.3115 19.2676H31.4436C36.6402 19.2675 40.9559 20.5446 40.9559 22.13Z" fill="#FEDB41"/>
<path d="M9.55659 22.262C8.76391 22.262 8.10331 21.6014 8.10331 20.8087C8.10331 20.016 8.76391 19.3554 9.55659 19.3554C10.3493 19.3554 11.0099 20.016 11.0099 20.8087C11.0099 21.2931 11.4062 21.6894 11.8906 21.6894C12.3751 21.6894 12.7714 21.2931 12.7714 20.8087C12.7714 19.3995 11.8026 18.1224 10.4374 17.726V17.3737C10.4374 16.8893 10.041 16.4929 9.55659 16.4929C9.07216 16.4929 8.67582 16.8893 8.67582 17.3737V17.726C7.26662 18.0784 6.29777 19.3555 6.34177 20.8087C6.34177 22.5702 7.79505 24.0235 9.55659 24.0235C10.3493 24.0235 11.0099 24.6841 11.0099 25.4768C11.0099 26.2694 10.3493 26.93 9.55659 26.93C8.76391 26.93 8.10331 26.2694 8.10331 25.4768C8.10331 24.9923 7.70697 24.596 7.22254 24.596C6.73811 24.596 6.34177 24.9923 6.34177 25.4768C6.34177 26.93 7.31063 28.1631 8.67582 28.5594V29.264C8.67582 29.7484 9.07216 30.1448 9.55659 30.1448C10.041 30.1448 10.4374 29.7484 10.4374 29.264V28.5594C12.1548 28.075 13.1237 26.2694 12.5952 24.5519C12.1989 23.2308 10.9658 22.262 9.55659 22.262Z" fill="#E2A63B"/>
</g>
<defs>
<clipPath id="clip0">
<rect width="41" height="41" fill="white"/>
</clipPath>
</defs>
</svg>
