<svg width="12" height="13" viewBox="0 0 12 13" fill="none" xmlns="http://www.w3.org/2000/svg">
<g clip-path="url(#clip0)">
<path d="M0.46875 6.13135H5.53125V1.06885C5.53125 0.809957 5.74111 0.600098 6 0.600098C6.25889 0.600098 6.46875 0.809957 6.46875 1.06885V6.13135H11.5312C11.7901 6.13135 12 6.34121 12 6.6001C12 6.85899 11.7901 7.06885 11.5312 7.06885H6.46875V12.1313C6.46875 12.3902 6.25889 12.6001 6 12.6001C5.74111 12.6001 5.53125 12.3902 5.53125 12.1313V7.06885H0.46875C0.20986 7.06885 0 6.85899 0 6.6001C0 6.34121 0.20986 6.13135 0.46875 6.13135Z" fill="white"/>
</g>
<defs>
<clipPath id="clip0">
<rect width="12" height="12" fill="white" transform="matrix(-1 0 0 1 12 0.600098)"/>
</clipPath>
</defs>
</svg>
