<svg width="312" height="312" viewBox="0 0 312 312" fill="none" xmlns="http://www.w3.org/2000/svg">
<path d="M112.125 34.125H53.625C53.625 41.8826 50.5433 49.3224 45.0579 54.8079C39.5724 60.2933 32.1326 63.375 24.375 63.375V248.625C32.1326 248.625 39.5724 251.707 45.0579 257.192C50.5433 262.678 53.625 270.117 53.625 277.875H112.125C112.125 270.117 115.207 262.678 120.692 257.192C126.178 251.707 133.617 248.625 141.375 248.625V63.375C133.617 63.375 126.178 60.2933 120.692 54.8079C115.207 49.3224 112.125 41.8826 112.125 34.125ZM82.875 199.875C74.1973 199.875 65.7146 197.302 58.4994 192.481C51.2841 187.66 45.6606 180.807 42.3398 172.79C39.019 164.773 38.1501 155.951 39.843 147.44C41.536 138.929 45.7147 131.112 51.8507 124.976C57.9867 118.84 65.8045 114.661 74.3154 112.968C82.8263 111.275 91.6481 112.144 99.6652 115.465C107.682 118.786 114.535 124.409 119.356 131.624C124.177 138.84 126.75 147.322 126.75 156C126.749 167.636 122.126 178.795 113.898 187.023C105.67 195.251 94.5111 199.874 82.875 199.875Z" fill="#98C7FF"/>
<path d="M199.875 273H287.625V292.5H199.875V273Z" fill="#98C7FF"/>
<path d="M214.5 234H302.25V253.5H214.5V234Z" fill="#98C7FF"/>
<path d="M195 195H282.75V214.5H195V195Z" fill="#98C7FF"/>
<path d="M170.625 156H258.375V175.5H170.625V156Z" fill="#98C7FF"/>
<path d="M156 14.625H9.75C8.45707 14.625 7.21709 15.1386 6.30285 16.0529C5.38861 16.9671 4.875 18.2071 4.875 19.5V292.5C4.875 293.793 5.38861 295.033 6.30285 295.947C7.21709 296.861 8.45707 297.375 9.75 297.375H156C157.293 297.375 158.533 296.861 159.447 295.947C160.361 295.033 160.875 293.793 160.875 292.5V19.5C160.875 18.2071 160.361 16.9671 159.447 16.0529C158.533 15.1386 157.293 14.625 156 14.625ZM151.125 287.625H14.625V24.375H151.125V287.625Z" fill="#051EFF"/>
<path d="M24.375 253.5C30.8374 253.507 37.0331 256.078 41.6027 260.647C46.1723 265.217 48.7427 271.413 48.75 277.875C48.75 279.168 49.2636 280.408 50.1779 281.322C51.0921 282.236 52.3321 282.75 53.625 282.75H112.125C113.418 282.75 114.658 282.236 115.572 281.322C116.486 280.408 117 279.168 117 277.875C117.007 271.413 119.578 265.217 124.147 260.647C128.717 256.078 134.913 253.507 141.375 253.5C142.668 253.5 143.908 252.986 144.822 252.072C145.736 251.158 146.25 249.918 146.25 248.625V63.375C146.25 62.0821 145.736 60.8421 144.822 59.9279C143.908 59.0136 142.668 58.5 141.375 58.5C134.913 58.4927 128.717 55.9223 124.147 51.3527C119.578 46.7831 117.007 40.5874 117 34.125C117 32.8321 116.486 31.5921 115.572 30.6779C114.658 29.7636 113.418 29.25 112.125 29.25H53.625C52.3321 29.25 51.0921 29.7636 50.1779 30.6779C49.2636 31.5921 48.75 32.8321 48.75 34.125C48.7427 40.5874 46.1723 46.7831 41.6027 51.3527C37.0331 55.9223 30.8374 58.4927 24.375 58.5C23.0821 58.5 21.8421 59.0136 20.9279 59.9279C20.0136 60.8421 19.5 62.0821 19.5 63.375V248.625C19.5 249.918 20.0136 251.158 20.9279 252.072C21.8421 252.986 23.0821 253.5 24.375 253.5ZM29.25 67.9033C36.5371 66.8389 43.286 63.4511 48.4934 58.2436C53.7008 53.0361 57.0884 46.2871 58.1527 39H107.597C108.662 46.2871 112.049 53.0361 117.257 58.2436C122.464 63.4511 129.213 66.8389 136.5 67.9033V244.097C129.213 245.161 122.464 248.549 117.257 253.756C112.049 258.964 108.662 265.713 107.597 273H58.1527C57.0884 265.713 53.7008 258.964 48.4934 253.756C43.286 248.549 36.5371 245.161 29.25 244.097V67.9033Z" fill="#051EFF"/>
<path d="M131.625 156C131.625 146.358 128.766 136.933 123.409 128.916C118.052 120.899 110.439 114.651 101.531 110.961C92.6229 107.271 82.8209 106.306 73.3644 108.187C63.9078 110.068 55.2214 114.711 48.4036 121.529C41.5858 128.346 36.9428 137.033 35.0617 146.489C33.1807 155.946 34.1461 165.748 37.8359 174.656C41.5257 183.564 47.7741 191.177 55.791 196.534C63.8079 201.891 73.2332 204.75 82.875 204.75C95.7998 204.735 108.191 199.594 117.33 190.455C126.469 181.316 131.61 168.925 131.625 156ZM43.875 156C43.875 148.287 46.1623 140.746 50.4477 134.333C54.7331 127.919 60.8241 122.921 67.9504 119.969C75.0767 117.017 82.9183 116.245 90.4835 117.749C98.0488 119.254 104.998 122.969 110.452 128.423C115.906 133.877 119.621 140.826 121.126 148.392C122.63 155.957 121.858 163.798 118.906 170.925C115.955 178.051 110.956 184.142 104.542 188.427C98.1287 192.713 90.5885 195 82.875 195C72.5351 194.988 62.6221 190.876 55.3107 183.564C47.9993 176.253 43.8866 166.34 43.875 156Z" fill="#051EFF"/>
<path d="M87.75 175.5H92.625C93.9179 175.5 95.1579 174.986 96.0721 174.072C96.9864 173.158 97.5 171.918 97.5 170.625V156C97.5 154.707 96.9864 153.467 96.0721 152.553C95.1579 151.639 93.9179 151.125 92.625 151.125H78V146.25H92.625C93.9179 146.25 95.1579 145.736 96.0721 144.822C96.9864 143.908 97.5 142.668 97.5 141.375C97.5 140.082 96.9864 138.842 96.0721 137.928C95.1579 137.014 93.9179 136.5 92.625 136.5H87.75C87.75 135.207 87.2364 133.967 86.3221 133.053C85.4079 132.139 84.1679 131.625 82.875 131.625C81.5821 131.625 80.3421 132.139 79.4279 133.053C78.5136 133.967 78 135.207 78 136.5H73.125C71.8321 136.5 70.5921 137.014 69.6779 137.928C68.7636 138.842 68.25 140.082 68.25 141.375V156C68.25 157.293 68.7636 158.533 69.6779 159.447C70.5921 160.361 71.8321 160.875 73.125 160.875H87.75V165.75H73.125C71.8321 165.75 70.5921 166.264 69.6779 167.178C68.7636 168.092 68.25 169.332 68.25 170.625C68.25 171.918 68.7636 173.158 69.6779 174.072C70.5921 174.986 71.8321 175.5 73.125 175.5H78C78 176.793 78.5136 178.033 79.4279 178.947C80.3421 179.861 81.5821 180.375 82.875 180.375C84.1679 180.375 85.4079 179.861 86.3221 178.947C87.2364 178.033 87.75 176.793 87.75 175.5Z" fill="#051EFF"/>
<path d="M302.25 229.125H273V219.375H282.75C284.043 219.375 285.283 218.861 286.197 217.947C287.111 217.033 287.625 215.793 287.625 214.5V199.875H292.5C293.793 199.875 295.033 199.361 295.947 198.447C296.861 197.533 297.375 196.293 297.375 195V175.5C297.375 174.207 296.861 172.967 295.947 172.053C295.033 171.139 293.793 170.625 292.5 170.625H263.25V160.875H273C274.293 160.875 275.533 160.361 276.447 159.447C277.361 158.533 277.875 157.293 277.875 156V136.5C277.875 135.207 277.361 133.967 276.447 133.053C275.533 132.139 274.293 131.625 273 131.625H185.25C183.957 131.625 182.717 132.139 181.803 133.053C180.889 133.967 180.375 135.207 180.375 136.5V151.125H170.625C169.332 151.125 168.092 151.639 167.178 152.553C166.264 153.467 165.75 154.707 165.75 156V175.5C165.75 176.793 166.264 178.033 167.178 178.947C168.092 179.861 169.332 180.375 170.625 180.375H199.875V190.125H195C193.707 190.125 192.467 190.639 191.553 191.553C190.639 192.467 190.125 193.707 190.125 195V209.625H180.375C179.082 209.625 177.842 210.139 176.928 211.053C176.014 211.967 175.5 213.207 175.5 214.5V234C175.5 235.293 176.014 236.533 176.928 237.447C177.842 238.361 179.082 238.875 180.375 238.875H209.625V248.625H175.5C174.207 248.625 172.967 249.139 172.053 250.053C171.139 250.967 170.625 252.207 170.625 253.5V273C170.625 274.293 171.139 275.533 172.053 276.447C172.967 277.361 174.207 277.875 175.5 277.875H195V292.5C195 293.793 195.514 295.033 196.428 295.947C197.342 296.861 198.582 297.375 199.875 297.375H287.625C288.918 297.375 290.158 296.861 291.072 295.947C291.986 295.033 292.5 293.793 292.5 292.5V273C292.5 271.707 291.986 270.467 291.072 269.553C290.158 268.639 288.918 268.125 287.625 268.125H268.125V258.375H302.25C303.543 258.375 304.783 257.861 305.697 256.947C306.611 256.033 307.125 254.793 307.125 253.5V234C307.125 232.707 306.611 231.467 305.697 230.553C304.783 229.639 303.543 229.125 302.25 229.125ZM287.625 180.375V190.125H209.625V180.375H287.625ZM190.125 141.375H268.125V151.125H190.125V141.375ZM175.5 170.625V160.875H253.5V170.625H175.5ZM199.875 199.875H277.875V209.625H199.875V199.875ZM185.25 229.125V219.375H263.25V229.125H185.25ZM180.375 268.125V258.375H258.375V268.125H180.375ZM282.75 277.875V287.625H204.75V277.875H282.75ZM297.375 248.625H219.375V238.875H297.375V248.625Z" fill="#051EFF"/>
<path d="M234 121.875C243.642 121.875 253.067 119.016 261.084 113.659C269.101 108.302 275.349 100.689 279.039 91.7808C282.729 82.8729 283.694 73.0709 281.813 63.6144C279.932 54.1578 275.289 45.4714 268.471 38.6536C261.654 31.8358 252.967 27.1928 243.511 25.3117C234.054 23.4307 224.252 24.3961 215.344 28.0859C206.436 31.7757 198.823 38.0241 193.466 46.041C188.109 54.0579 185.25 63.4832 185.25 73.125C185.265 86.0498 190.406 98.441 199.545 107.58C208.684 116.719 221.075 121.86 234 121.875ZM234 34.125C241.713 34.125 249.254 36.4123 255.667 40.6977C262.081 44.9831 267.079 51.0741 270.031 58.2004C272.983 65.3267 273.755 73.1683 272.251 80.7335C270.746 88.2988 267.031 95.2479 261.577 100.702C256.123 106.156 249.174 109.871 241.609 111.376C234.043 112.88 226.202 112.108 219.075 109.156C211.949 106.205 205.858 101.206 201.573 94.7923C197.287 88.3787 195 80.8385 195 73.125C195.012 62.7851 199.124 52.8721 206.436 45.5607C213.747 38.2493 223.66 34.1366 234 34.125Z" fill="#051EFF"/>
<path d="M224.25 82.875C222.957 82.875 221.717 83.3886 220.803 84.3028C219.889 85.2171 219.375 86.4571 219.375 87.75C219.375 89.0429 219.889 90.2829 220.803 91.1972C221.717 92.1114 222.957 92.625 224.25 92.625H229.125C229.125 93.9179 229.639 95.1579 230.553 96.0722C231.467 96.9864 232.707 97.5 234 97.5C235.293 97.5 236.533 96.9864 237.447 96.0722C238.361 95.1579 238.875 93.9179 238.875 92.625H243.75C245.043 92.625 246.283 92.1114 247.197 91.1972C248.111 90.2829 248.625 89.0429 248.625 87.75V73.125C248.625 71.8321 248.111 70.5921 247.197 69.6779C246.283 68.7636 245.043 68.25 243.75 68.25H229.125V63.375H243.75C245.043 63.375 246.283 62.8614 247.197 61.9471C248.111 61.0329 248.625 59.7929 248.625 58.5C248.625 57.2071 248.111 55.9671 247.197 55.0529C246.283 54.1386 245.043 53.625 243.75 53.625H238.875C238.875 52.3321 238.361 51.0921 237.447 50.1779C236.533 49.2636 235.293 48.75 234 48.75C232.707 48.75 231.467 49.2636 230.553 50.1779C229.639 51.0921 229.125 52.3321 229.125 53.625H224.25C222.957 53.625 221.717 54.1386 220.803 55.0529C219.889 55.9671 219.375 57.2071 219.375 58.5V73.125C219.375 74.4179 219.889 75.6579 220.803 76.5721C221.717 77.4864 222.957 78 224.25 78H238.875V82.875H224.25Z" fill="#051EFF"/>
</svg>
